# xmcd
#
# Track frame offsets:
#	182
#	21837
#	44505
#	74142
#	92830
#	117950
#	152135
#	153437
#	181410
#	206010
#
# Disc length: 3050 seconds
#
# Revision: 0
# Processed by: cddbd v1.4PL0 Copyright (c) Steve Scherf et al.
# Submitted via: dBpowerAMP V4.0
#
DISCID=8d0be80a
DTITLE=Miles Jaye - Irresistible
DYEAR=1989
DGENRE=R&B
TTITLE0=Irresistible
TTITLE1=Objective
TTITLE2=Next Time
TTITLE3=Slo-Dance
TTITLE4=Message
TTITLE5=Neither One of Us
TTITLE6=Interlude
TTITLE7=I'll Be There
TTITLE8=Heaven
TTITLE9=Love In The Night
EXTD=
EXTT0=
EXTT1=
EXTT2=
EXTT3=
EXTT4=
EXTT5=
EXTT6=
EXTT7=
EXTT8=
EXTT9=
PLAYORDER=
